<svg width="1400" height="900" viewBox="0 0 1400 900" fill="none" xmlns="http://www.w3.org/2000/svg">
  <rect width="1400" height="900" rx="36" fill="#F8FAFC"/>
  <rect x="42" y="42" width="1316" height="58" rx="18" fill="#FFFFFF" stroke="#DCE3EC"/>
  <circle cx="78" cy="71" r="8" fill="#0EA5E9"/>
  <circle cx="106" cy="71" r="8" fill="#22C55E"/>
  <circle cx="134" cy="71" r="8" fill="#F59E0B"/>
  <rect x="168" y="58" width="230" height="26" rx="13" fill="#ECF2FF"/>
  <rect x="1018" y="58" width="160" height="26" rx="13" fill="#E2E8F0"/>
  <rect x="1194" y="58" width="128" height="26" rx="13" fill="#DBEAFE"/>

  <rect x="42" y="126" width="266" height="732" rx="26" fill="#FFFFFF" stroke="#DCE3EC"/>
  <rect x="74" y="172" width="188" height="22" rx="11" fill="#0F172A"/>
  <rect x="74" y="210" width="220" height="14" rx="7" fill="#CBD5E1"/>
  <rect x="74" y="255" width="202" height="48" rx="14" fill="#DBEAFE"/>
  <rect x="74" y="319" width="202" height="48" rx="14" fill="#DCFCE7"/>
  <rect x="74" y="383" width="202" height="48" rx="14" fill="#E0F2FE"/>
  <rect x="74" y="447" width="202" height="48" rx="14" fill="#E2E8F0"/>

  <rect x="338" y="126" width="1020" height="312" rx="26" fill="#FFFFFF" stroke="#DCE3EC"/>
  <rect x="382" y="168" width="300" height="28" rx="14" fill="#0F172A"/>
  <rect x="382" y="208" width="380" height="14" rx="7" fill="#64748B"/>
  <rect x="382" y="250" width="292" height="138" rx="20" fill="#ECFEFF"/>
  <rect x="694" y="250" width="292" height="138" rx="20" fill="#EFF6FF"/>
  <rect x="1006" y="250" width="292" height="138" rx="20" fill="#F0FDF4"/>

  <rect x="338" y="466" width="490" height="392" rx="26" fill="#FFFFFF" stroke="#DCE3EC"/>
  <rect x="382" y="510" width="218" height="24" rx="12" fill="#0F172A"/>
  <rect x="382" y="550" width="360" height="12" rx="6" fill="#94A3B8"/>
  <rect x="382" y="592" width="402" height="30" rx="10" fill="#E2E8F0"/>
  <rect x="382" y="636" width="352" height="30" rx="10" fill="#E2E8F0"/>
  <rect x="382" y="680" width="298" height="30" rx="10" fill="#E2E8F0"/>
  <rect x="382" y="738" width="172" height="48" rx="18" fill="#2563EB"/>

  <rect x="848" y="466" width="510" height="392" rx="26" fill="#FFFFFF" stroke="#DCE3EC"/>
  <rect x="892" y="510" width="220" height="24" rx="12" fill="#0F172A"/>
  <rect x="892" y="552" width="350" height="12" rx="6" fill="#94A3B8"/>
  <rect x="892" y="598" width="420" height="14" rx="7" fill="#DBEAFE"/>
  <rect x="892" y="630" width="368" height="14" rx="7" fill="#D1FAE5"/>
  <rect x="892" y="662" width="284" height="14" rx="7" fill="#E0F2FE"/>
  <rect x="892" y="718" width="420" height="94" rx="20" fill="#F1F5F9"/>
</svg>
